<svg xmlns="http://www.w3.org/2000/svg" height="100" width="100" xmlns:xlink="http://www.w3.org/1999/xlink" viewBox="-480 -410 960 920">
    <g>
        <path id="s" stroke="#000" stroke-width="25" fill="#193" transform="rotate(144)" d="m164 232c-75.7 54-131 137-164 233-39-96-87.3-178-164-233"/>
        <g id="a">
            <g id="b">
                <use xlink:href="#s" transform="rotate(72)"/>
                <g id="c" stroke="#000">
                    <path d="m-2.3.6l-155-221c-39-56 21-153 79-157 20.5-1.3 51 21.8 79 21.8s58-23 79-21.8c61.7 4 111 112 79 157l-159 221" stroke-width="25" fill="#d22"/>
                    <g fill="none" stroke-width="10">
                        <path d="m-27.7-43c11-9 29-253 26-253s20 243 29 253"/>
                        <path d="m-120-270c.8-11.4 5.7-22.4 13.7-30.6 7.9-8.2 18.8-13.4 30-14.4 13-1.2 26 2.8 38.4 7.2 12.4 4.3 25 9 38 9s25.8-4.7 38-9c12.4-4.3 25.4-8.4 38.4-7.2 11.3 1.1 22 6.3 30 14.4 7.9 8.2 12.9 19 13.7 30.6" stroke-linecap="round"/>
                    </g>
                </g>
            </g>
            <use xlink:href="#b" transform="rotate(72)"/>
        </g>
        <use xlink:href="#a" transform="rotate(144)"/>
        <use xlink:href="#c" transform="rotate(-72)"/>
        <circle stroke="#000" stroke-width="30" r="123" fill="#fd1"/>
    </g>
</svg>
